# xmcd
#
# Track frame offsets:
#	150
#	14185
#	27005
#	45850
#	58605
#	77542
#	94702
#	105662
#	116722
#	130230
#	147790
#	166440
#
# Disc length: 2425 seconds
#
# Revision: 0
# Processed by: cddbd v1.5.2PL0 Copyright (c) Steve Scherf et al.
# Submitted via: EasyCDDAExtractor 10.0.2.1
#
DISCID=9509770c
DTITLE=Various Artist - King Of Kings
DYEAR=1900
DGENRE=Gospel
TTITLE0=Don Johnson - I Know You By Heart
TTITLE1=Marvin Morrow - I'll Rest On That Shore
TTITLE2=Bobby Denton - Leaving On My Mind
TTITLE3=Stephen Decter - Gospel Road
TTITLE4=Wynette Prince Davis - Life's Highway To Heaven
TTITLE5=David Glen Eisley - If Jesus Was A Cowboy
TTITLE6=George Jones - The Good Old Bible
TTITLE7=Melba Montgomery - Hallelujah Road
TTITLE8=Aldersgate Praise - He Will Come
TTITLE9=David Patillo - Hang On To The Cross
TTITLE10=Ron Rogers - How Great Thou Art
TTITLE11=Earl and Charlene Montgomery - Making A Trade
EXTD=
EXTT0=
EXTT1=
EXTT2=
EXTT3=
EXTT4=
EXTT5=
EXTT6=
EXTT7=
EXTT8=
EXTT9=
EXTT10=
EXTT11=
PLAYORDER=
